<?xml version="1.0" encoding="iso-8859-1"?>
<!-- Generator: Adobe Illustrator 16.0.0, SVG Export Plug-In . SVG Version: 6.00 Build 0)  -->
<!DOCTYPE svg PUBLIC "-//W3C//DTD SVG 1.1//EN" "http://www.w3.org/Graphics/SVG/1.1/DTD/svg11.dtd">
<svg version="1.1" id="Capa_1" xmlns="http://www.w3.org/2000/svg" xmlns:xlink="http://www.w3.org/1999/xlink" x="0px" y="0px"
	 width="419.896px" height="419.896px" viewBox="0 0 419.896 419.896" style="enable-background:new 0 0 419.896 419.896;"
	 xml:space="preserve">
<g>
	<path d="M335.713,59.54H84.18c-12.103,0-21.949,9.84-21.949,21.936v256.947c0,12.1,9.84,21.945,21.949,21.945h251.533
		c12.1,0,21.945-9.84,21.945-21.945V81.476C357.652,69.38,347.812,59.54,335.713,59.54z M259.879,262.126h-42.313v-95.7
		l-36.803,58.392l-36.657-58.392v95.706h-42.189V92.238h42.189l36.657,58.392l36.803-58.392h42.313V262.126z M376.87,0H43.02
		C21.245,0,3.586,17.658,3.586,39.43v341.026c0,21.781,17.659,39.439,39.434,39.439h333.856c21.774,0,39.434-17.658,39.434-39.439
		V39.43C416.31,17.658,398.65,0,376.87,0z M373.204,338.423c0,20.666-16.818,37.491-37.491,37.491H84.18
		c-20.67,0-37.494-16.818-37.494-37.491V81.476c0-20.663,16.818-37.488,37.494-37.488h251.533c20.667,0,37.491,16.818,37.491,37.488
		V338.423z"/>
</g>
<g>
</g>
<g>
</g>
<g>
</g>
<g>
</g>
<g>
</g>
<g>
</g>
<g>
</g>
<g>
</g>
<g>
</g>
<g>
</g>
<g>
</g>
<g>
</g>
<g>
</g>
<g>
</g>
<g>
</g>
</svg>
